<svg xmlns="http://www.w3.org/2000/svg" width="1260" height="620"
 viewBox="0 0 1260 620" font-family="WenQuanYi Micro Hei, Microsoft YaHei, sans-serif">
<defs>
  <marker id="arrow" markerWidth="10" markerHeight="10" refX="8" refY="3" orient="auto" markerUnits="strokeWidth">
    <path d="M0,0 L8,3 L0,6 z" fill="#5A6675"/>
  </marker>
</defs>
<rect x="0" y="0" width="1260" height="620" fill="#FFFFFF"/>
<text x="630.0" y="30" text-anchor="middle" font-size="18" font-weight="700" fill="#1F2A37">五子棋落子验证与胜负判定管线</text>
<rect x="45" y="80" width="190" height="70" rx="8" fill="#DCEAF9" stroke="#2E75B6" stroke-width="1.6"/><text x="140.0" y="110.0" text-anchor="middle" font-size="12" font-weight="700" fill="#1F2A37">接收 place</text><text x="140.0" y="130.0" text-anchor="middle" font-size="12" fill="#5B6B7B">坐标 + revision</text><rect x="275" y="80" width="190" height="70" rx="8" fill="#F2F3F5" stroke="#8A93A0" stroke-width="1.6"/><text x="370.0" y="110.0" text-anchor="middle" font-size="12" font-weight="700" fill="#1F2A37">公共校验</text><text x="370.0" y="130.0" text-anchor="middle" font-size="12" fill="#5B6B7B">身份 / 回合 / 空点</text><rect x="505" y="80" width="200" height="70" rx="8" fill="#E9E3F4" stroke="#73559A" stroke-width="1.6"/><text x="605.0" y="110.0" text-anchor="middle" font-size="12" font-weight="700" fill="#1F2A37">连珠黑方？</text><text x="605.0" y="130.0" text-anchor="middle" font-size="12" fill="#5B6B7B">正式禁手评估</text><rect x="745" y="80" width="190" height="70" rx="8" fill="#FFF0B3" stroke="#B88700" stroke-width="1.6"/><text x="840.0" y="110.0" text-anchor="middle" font-size="12" font-weight="700" fill="#1F2A37">结算棋钟</text><text x="840.0" y="130.0" text-anchor="middle" font-size="12" fill="#5B6B7B">超时则判负</text><rect x="975" y="80" width="225" height="70" rx="8" fill="#E2EFDA" stroke="#538135" stroke-width="1.6"/><text x="1087.5" y="110.0" text-anchor="middle" font-size="12" font-weight="700" fill="#1F2A37">暂存棋子</text><text x="1087.5" y="130.0" text-anchor="middle" font-size="12" fill="#5B6B7B">扫描四条轴</text><line x1="235" y1="115" x2="275" y2="115" stroke="#5A6675" stroke-width="1.8" marker-end="url(#arrow)"/><line x1="465" y1="115" x2="505" y2="115" stroke="#5A6675" stroke-width="1.8" marker-end="url(#arrow)"/><line x1="705" y1="115" x2="745" y2="115" stroke="#5A6675" stroke-width="1.8" marker-end="url(#arrow)"/><line x1="935" y1="115" x2="975" y2="115" stroke="#5A6675" stroke-width="1.8" marker-end="url(#arrow)"/><rect x="505" y="225" width="200" height="70" rx="8" fill="#F8DDDD" stroke="#B54A4A" stroke-width="1.6"/><text x="605.0" y="255.0" text-anchor="middle" font-size="13" font-weight="700" fill="#1F2A37">禁手</text><text x="605.0" y="275.0" text-anchor="middle" font-size="13" fill="#5B6B7B">拒绝且状态不变</text><line x1="605" y1="150" x2="605" y2="225" stroke="#5A6675" stroke-width="1.8" marker-end="url(#arrow)"/><text x="620" y="192" text-anchor="start" font-size="11" fill="#B54A4A">非法</text><rect x="80" y="390" width="230" height="80" rx="8" fill="#DCEAF9" stroke="#2E75B6" stroke-width="1.6"/><text x="195.0" y="425.0" text-anchor="middle" font-size="13" font-weight="700" fill="#1F2A37">自由规则</text><text x="195.0" y="445.0" text-anchor="middle" font-size="13" fill="#5B6B7B">连续数 &gt;= 5 即胜</text><rect x="385" y="390" width="230" height="80" rx="8" fill="#FCE4D6" stroke="#C55A11" stroke-width="1.6"/><text x="500.0" y="425.0" text-anchor="middle" font-size="13" font-weight="700" fill="#1F2A37">标准规则</text><text x="500.0" y="445.0" text-anchor="middle" font-size="13" fill="#5B6B7B">连续数 == 5 即胜</text><rect x="690" y="390" width="230" height="80" rx="8" fill="#E9E3F4" stroke="#73559A" stroke-width="1.6"/><text x="805.0" y="425.0" text-anchor="middle" font-size="13" font-weight="700" fill="#1F2A37">连珠规则</text><text x="805.0" y="445.0" text-anchor="middle" font-size="13" fill="#5B6B7B">黑恰好五 / 白 &gt;= 5</text><rect x="995" y="390" width="200" height="80" rx="8" fill="#E2EFDA" stroke="#538135" stroke-width="1.6"/><text x="1095.0" y="425.0" text-anchor="middle" font-size="13" font-weight="700" fill="#1F2A37">无胜者</text><text x="1095.0" y="445.0" text-anchor="middle" font-size="13" fill="#5B6B7B">满盘和棋或换手</text><line x1="1088" y1="150" x2="1088" y2="330" stroke="#5A6675" stroke-width="1.8"/><line x1="195" y1="330" x2="1095" y2="330" stroke="#5A6675" stroke-width="1.8"/><text x="965" y="316" text-anchor="middle" font-size="11" fill="#5B6B7B">按房间规则选择判定器</text><line x1="195" y1="330" x2="195" y2="390" stroke="#5A6675" stroke-width="1.8" marker-end="url(#arrow)"/><line x1="500" y1="330" x2="500" y2="390" stroke="#5A6675" stroke-width="1.8" marker-end="url(#arrow)"/><line x1="805" y1="330" x2="805" y2="390" stroke="#5A6675" stroke-width="1.8" marker-end="url(#arrow)"/><line x1="1095" y1="330" x2="1095" y2="390" stroke="#5A6675" stroke-width="1.8" marker-end="url(#arrow)"/><rect x="420" y="530" width="420" height="55" rx="8" fill="#E2EFDA" stroke="#538135" stroke-width="1.6"/><text x="630.0" y="562.5" text-anchor="middle" font-size="12" font-weight="700" fill="#1F2A37">提交新状态 → revision + 1 → 为玩家和观众生成投影</text><line x1="195" y1="470" x2="500" y2="530" stroke="#5A6675" stroke-width="1.8" marker-end="url(#arrow)"/><line x1="500" y1="470" x2="565" y2="530" stroke="#5A6675" stroke-width="1.8" marker-end="url(#arrow)"/><line x1="805" y1="470" x2="695" y2="530" stroke="#5A6675" stroke-width="1.8" marker-end="url(#arrow)"/><line x1="1095" y1="470" x2="760" y2="530" stroke="#5A6675" stroke-width="1.8" marker-end="url(#arrow)"/>
</svg>